<svg width="25" height="24" viewBox="0 0 25 24" fill="none" xmlns="http://www.w3.org/2000/svg">
<path d="M10.6056 7.36207C10.8055 7.17163 10.8133 6.85514 10.6228 6.65517C10.4324 6.45521 10.1159 6.44749 9.91591 6.63793L10.6056 7.36207ZM4.66591 11.6379C4.46595 11.8284 4.45823 12.1449 4.64867 12.3448C4.83912 12.5448 5.1556 12.5525 5.35557 12.3621L4.66591 11.6379ZM5.35557 11.6379C5.1556 11.4475 4.83912 11.4552 4.64867 11.6552C4.45823 11.8551 4.46595 12.1716 4.66591 12.3621L5.35557 11.6379ZM9.91591 17.3621C10.1159 17.5525 10.4324 17.5448 10.6228 17.3448C10.8133 17.1449 10.8055 16.8284 10.6056 16.6379L9.91591 17.3621ZM5.01074 11.5C4.7346 11.5 4.51074 11.7239 4.51074 12C4.51074 12.2761 4.7346 12.5 5.01074 12.5V11.5ZM19.0107 12.5C19.2869 12.5 19.5107 12.2761 19.5107 12C19.5107 11.7239 19.2869 11.5 19.0107 11.5V12.5ZM10.2607 7L9.91591 6.63793L4.66591 11.6379L5.01074 12L5.35557 12.3621L10.6056 7.36207L10.2607 7ZM5.01074 12L4.66591 12.3621L9.91591 17.3621L10.2607 17L10.6056 16.6379L5.35557 11.6379L5.01074 12ZM5.01074 12V12.5H19.0107V12V11.5H5.01074V12Z" fill="white"/>
</svg>
