<svg width="25" height="24" viewBox="0 0 25 24" fill="none" xmlns="http://www.w3.org/2000/svg">
<path fill-rule="evenodd" clip-rule="evenodd" d="M4.01074 10.7648V15.7058C4.02176 17.5357 5.51385 19.0103 7.34374 18.9998H15.6767C16.5557 19.0051 17.4007 18.661 18.026 18.0433C18.6512 17.4255 19.0055 16.5847 19.0107 15.7058V10.7648C18.9997 8.93487 17.5076 7.46023 15.6777 7.47076H7.34374C5.51385 7.46023 4.02176 8.93487 4.01074 10.7648Z" stroke="white" stroke-width="1.5" stroke-linecap="round" stroke-linejoin="round"/>
<path fill-rule="evenodd" clip-rule="evenodd" d="M11.5108 15.706C10.15 15.69 9.05831 14.5767 9.06892 13.2159C9.07954 11.855 10.1885 10.7589 11.5494 10.7642C12.9103 10.7694 14.0108 11.8741 14.0108 13.235C14.0071 13.8942 13.7416 14.525 13.2728 14.9884C12.8039 15.4519 12.1701 15.71 11.5108 15.706Z" stroke="white" stroke-width="1.5" stroke-linecap="round" stroke-linejoin="round"/>
<path d="M9.01074 7.47103V6.64703C9.01339 6.20756 9.1905 5.78715 9.50313 5.47827C9.81575 5.1694 10.2383 4.99737 10.6777 5.00003H12.3437C12.7832 4.99737 13.2057 5.1694 13.5184 5.47827C13.831 5.78715 14.0081 6.20756 14.0107 6.64703V7.47103" stroke="white" stroke-width="1.5" stroke-linecap="round" stroke-linejoin="round"/>
</svg>
