<svg width="29" height="28" viewBox="0 0 29 28" fill="none" xmlns="http://www.w3.org/2000/svg">
<path fill-rule="evenodd" clip-rule="evenodd" d="M22.1774 9.91675L19.8441 6.41675H16.9274L18.0941 9.91675L14.0107 21.5834L22.1774 9.91675Z" stroke="#00FF00" stroke-width="1.5" stroke-linecap="round" stroke-linejoin="round"/>
<path d="M5.2202 9.50072C4.99044 9.84537 5.08357 10.311 5.42821 10.5408C5.77286 10.7706 6.23851 10.6774 6.46828 10.3328L5.2202 9.50072ZM8.17757 6.41675V5.66675C7.92681 5.66675 7.69263 5.79207 7.55353 6.00072L8.17757 6.41675ZM11.0942 7.16675C11.5085 7.16675 11.8442 6.83096 11.8442 6.41675C11.8442 6.00253 11.5085 5.66675 11.0942 5.66675V7.16675ZM6.45866 9.48665C6.22113 9.14731 5.75348 9.06479 5.41414 9.30232C5.0748 9.53986 4.99228 10.0075 5.22981 10.3468L6.45866 9.48665ZM14.0109 21.5834L13.3965 22.0135C13.6113 22.3204 14.0197 22.4217 14.353 22.2508C14.6864 22.0799 14.8426 21.6892 14.7188 21.3357L14.0109 21.5834ZM10.6355 9.66899C10.4986 9.27803 10.0708 9.07202 9.67981 9.20885C9.28885 9.34569 9.08284 9.77355 9.21968 10.1645L10.6355 9.66899ZM5.84424 9.16675C5.43002 9.16675 5.09424 9.50253 5.09424 9.91675C5.09424 10.331 5.43002 10.6667 5.84424 10.6667V9.16675ZM9.92757 10.6667C10.3418 10.6667 10.6776 10.331 10.6776 9.91675C10.6776 9.50253 10.3418 9.16675 9.92757 9.16675V10.6667ZM11.8058 6.65392C11.9367 6.26096 11.7244 5.83622 11.3314 5.70524C10.9385 5.57425 10.5137 5.78662 10.3827 6.17958L11.8058 6.65392ZM9.21606 9.67958C9.08507 10.0725 9.29744 10.4973 9.6904 10.6283C10.0834 10.7592 10.5081 10.5469 10.6391 10.1539L9.21606 9.67958ZM11.0942 5.66675C10.68 5.66675 10.3442 6.00253 10.3442 6.41675C10.3442 6.83096 10.68 7.16675 11.0942 7.16675V5.66675ZM16.9276 7.16675C17.3418 7.16675 17.6776 6.83096 17.6776 6.41675C17.6776 6.00253 17.3418 5.66675 16.9276 5.66675V7.16675ZM9.92757 9.16675C9.51336 9.16675 9.17757 9.50253 9.17757 9.91675C9.17757 10.331 9.51336 10.6667 9.92757 10.6667V9.16675ZM22.1776 10.6667C22.5918 10.6667 22.9276 10.331 22.9276 9.91675C22.9276 9.50253 22.5918 9.16675 22.1776 9.16675V10.6667ZM5.84424 9.91675L6.46828 10.3328L8.80161 6.83277L8.17757 6.41675L7.55353 6.00072L5.2202 9.50072L5.84424 9.91675ZM8.17757 6.41675V7.16675H11.0942V6.41675V5.66675H8.17757V6.41675ZM5.84424 9.91675L5.22981 10.3468L13.3965 22.0135L14.0109 21.5834L14.6253 21.1533L6.45866 9.48665L5.84424 9.91675ZM14.0109 21.5834L14.7188 21.3357L10.6355 9.66899L9.92757 9.91675L9.21968 10.1645L13.303 21.8312L14.0109 21.5834ZM5.84424 9.91675V10.6667H9.92757V9.91675V9.16675H5.84424V9.91675ZM11.0942 6.41675L10.3827 6.17958L9.21606 9.67958L9.92757 9.91675L10.6391 10.1539L11.8058 6.65392L11.0942 6.41675ZM11.0942 6.41675V7.16675H16.9276V6.41675V5.66675H11.0942V6.41675ZM9.92757 9.91675V10.6667H22.1776V9.91675V9.16675H9.92757V9.91675Z" fill="#00FF00"/>
</svg>
