<svg width="72" height="72" viewBox="0 0 72 72" fill="none" xmlns="http://www.w3.org/2000/svg">
<path fill-rule="evenodd" clip-rule="evenodd" d="M43.9952 15.2388H28.0268C24.6192 15.2576 21.3587 16.6293 18.9625 19.0522C16.5663 21.4751 15.2308 24.7506 15.2497 28.1582V43.8419C15.2497 44.3444 15.2785 44.8464 15.3357 45.3456C16.054 51.8212 21.5116 56.7303 28.0268 56.7614H43.9952C47.4028 56.7426 50.6634 55.3708 53.0595 52.9479C55.4557 50.5251 56.7913 47.2495 56.7723 43.8419V28.1582C56.7913 24.7506 55.4557 21.4751 53.0595 19.0522C50.6634 16.6293 47.4028 15.2576 43.9952 15.2388Z" stroke="#A3A3A3" stroke-width="3" stroke-linecap="round" stroke-linejoin="round"/>
<path fill-rule="evenodd" clip-rule="evenodd" d="M27.2706 25.7562C27.2706 26.5866 26.5974 27.2599 25.7669 27.2599C24.9364 27.2599 24.2632 26.5866 24.2632 25.7562C24.2632 24.9257 24.9364 24.2524 25.7669 24.2524C26.5974 24.2524 27.2706 24.9257 27.2706 25.7562Z" stroke="#A3A3A3" stroke-width="3" stroke-linecap="round" stroke-linejoin="round"/>
<path d="M15.3364 45.3458C16.9279 43.9191 18.4064 42.3712 19.7586 40.716C21.7596 38.0089 25.3056 36.9448 28.4665 38.1031C35.9524 40.4758 42.6346 49.1926 49.0439 44.6607C51.3978 42.8645 53.2195 40.4626 54.3143 37.7116C54.9585 36.2004 55.7841 34.7732 56.773 33.4614" stroke="#A3A3A3" stroke-width="3" stroke-linecap="round" stroke-linejoin="round"/>
</svg>
