<svg width="25" height="24" viewBox="0 0 25 24" fill="none" xmlns="http://www.w3.org/2000/svg">
<path fill-rule="evenodd" clip-rule="evenodd" d="M13.1775 18.0861C13.1996 18.5673 12.8286 18.9758 12.3475 19.0001H10.6745C10.1934 18.9758 9.82241 18.5673 9.84449 18.0861V16.3111C7.48573 15.4455 6.14734 12.9523 6.72935 10.5081C7.31136 8.06388 9.62974 6.44143 12.1255 6.73179C14.6212 7.02216 16.5052 9.13353 16.5105 11.6461C16.5039 13.7514 15.167 15.6225 13.1775 16.3111V18.0861Z" stroke="white" stroke-width="1.5" stroke-linecap="round" stroke-linejoin="round"/>
<path d="M13.1777 17.061C13.592 17.061 13.9277 16.7252 13.9277 16.311C13.9277 15.8968 13.592 15.561 13.1777 15.561V17.061ZM9.84374 15.561C9.42953 15.561 9.09374 15.8968 9.09374 16.311C9.09374 16.7252 9.42953 17.061 9.84374 17.061V15.561ZM21.0107 12.396C21.425 12.396 21.7607 12.0602 21.7607 11.646C21.7607 11.2318 21.425 10.896 21.0107 10.896V12.396ZM19.0107 10.896C18.5965 10.896 18.2607 11.2318 18.2607 11.646C18.2607 12.0602 18.5965 12.396 19.0107 12.396V10.896ZM4.01074 12.396C4.42496 12.396 4.76074 12.0602 4.76074 11.646C4.76074 11.2318 4.42496 10.896 4.01074 10.896V12.396ZM2.01074 10.896C1.59653 10.896 1.26074 11.2318 1.26074 11.646C1.26074 12.0602 1.59653 12.396 2.01074 12.396V10.896ZM18.7557 5.53371C19.0504 5.24269 19.0535 4.76783 18.7624 4.47307C18.4714 4.17831 17.9966 4.17528 17.7018 4.46629L18.7557 5.53371ZM16.2838 5.86629C15.9891 6.15731 15.986 6.63217 16.277 6.92693C16.5681 7.22169 17.0429 7.22472 17.3377 6.93371L16.2838 5.86629ZM6.73843 17.426C7.03277 17.1345 7.03514 16.6597 6.7437 16.3653C6.45227 16.071 5.9774 16.0686 5.68306 16.36L6.73843 17.426ZM4.26906 17.76C3.97471 18.0515 3.97235 18.5263 4.26378 18.8207C4.55521 19.115 5.03008 19.1174 5.32443 18.826L4.26906 17.76ZM17.7041 18.826C17.9984 19.1174 18.4733 19.115 18.7647 18.8207C19.0561 18.5263 19.0538 18.0515 18.7594 17.76L17.7041 18.826ZM17.3454 16.36C17.0511 16.0686 16.5762 16.071 16.2848 16.3653C15.9933 16.6597 15.9957 17.1345 16.2901 17.426L17.3454 16.36ZM5.68381 6.93371C5.97857 7.22472 6.45343 7.22169 6.74445 6.92693C7.03547 6.63217 7.03243 6.15731 6.73767 5.86629L5.68381 6.93371ZM5.31967 4.46629C5.02492 4.17528 4.55005 4.17831 4.25904 4.47307C3.96802 4.76783 3.97105 5.24269 4.26581 5.53371L5.31967 4.46629ZM13.1777 16.311V15.561H9.84374V16.311V17.061H13.1777V16.311ZM21.0107 11.646V10.896H19.0107V11.646V12.396H21.0107V11.646ZM4.01074 11.646V10.896H2.01074V11.646V12.396H4.01074V11.646ZM18.2287 5L17.7018 4.46629L16.2838 5.86629L16.8107 6.4L17.3377 6.93371L18.7557 5.53371L18.2287 5ZM6.21074 16.893L5.68306 16.36L4.26906 17.76L4.79674 18.293L5.32443 18.826L6.73843 17.426L6.21074 16.893ZM18.2317 18.293L18.7594 17.76L17.3454 16.36L16.8177 16.893L16.2901 17.426L17.7041 18.826L18.2317 18.293ZM6.21074 6.4L6.73767 5.86629L5.31967 4.46629L4.79274 5L4.26581 5.53371L5.68381 6.93371L6.21074 6.4Z" fill="white"/>
</svg>
