<svg width="33" height="32" viewBox="0 0 33 32" fill="none" xmlns="http://www.w3.org/2000/svg">
<path d="M7.0109 12C7.0109 12.5523 7.45862 13 8.0109 13C8.56319 13 9.0109 12.5523 9.0109 12H7.0109ZM8.0109 8V7C7.45862 7 7.0109 7.44772 7.0109 8H8.0109ZM12.0109 9C12.5632 9 13.0109 8.55228 13.0109 8C13.0109 7.44772 12.5632 7 12.0109 7V9ZM23.0109 12C23.0109 12.5523 23.4586 13 24.0109 13C24.5632 13 25.0109 12.5523 25.0109 12H23.0109ZM24.0109 8H25.0109C25.0109 7.44772 24.5632 7 24.0109 7V8ZM20.0109 7C19.4586 7 19.0109 7.44772 19.0109 8C19.0109 8.55228 19.4586 9 20.0109 9V7ZM25.0109 20C25.0109 19.4477 24.5632 19 24.0109 19C23.4586 19 23.0109 19.4477 23.0109 20H25.0109ZM24.0109 24V25C24.5632 25 25.0109 24.5523 25.0109 24H24.0109ZM20.0109 23C19.4586 23 19.0109 23.4477 19.0109 24C19.0109 24.5523 19.4586 25 20.0109 25V23ZM9.0109 20C9.0109 19.4477 8.56319 19 8.0109 19C7.45862 19 7.0109 19.4477 7.0109 20H9.0109ZM8.0109 24H7.0109C7.0109 24.5523 7.45862 25 8.0109 25V24ZM12.0109 25C12.5632 25 13.0109 24.5523 13.0109 24C13.0109 23.4477 12.5632 23 12.0109 23V25ZM26.6776 17C27.2299 17 27.6776 16.5523 27.6776 16C27.6776 15.4477 27.2299 15 26.6776 15V17ZM5.34424 15C4.79195 15 4.34424 15.4477 4.34424 16C4.34424 16.5523 4.79195 17 5.34424 17V15ZM8.0109 12H9.0109V8H8.0109H7.0109V12H8.0109ZM8.0109 8V9H12.0109V8V7H8.0109V8ZM24.0109 12H25.0109V8H24.0109H23.0109V12H24.0109ZM24.0109 8V7H20.0109V8V9H24.0109V8ZM24.0109 20H23.0109V24H24.0109H25.0109V20H24.0109ZM24.0109 24V23H20.0109V24V25H24.0109V24ZM8.0109 20H7.0109V24H8.0109H9.0109V20H8.0109ZM8.0109 24V25H12.0109V24V23H8.0109V24ZM26.6776 16V15H5.34424V16V17H26.6776V16Z" fill="white"/>
</svg>
