<svg width="25" height="25" viewBox="0 0 25 25" fill="none" xmlns="http://www.w3.org/2000/svg">
<path fill-rule="evenodd" clip-rule="evenodd" d="M11.0107 16.5908C10.8476 14.4529 9.14867 12.7539 7.01074 12.5908C9.14867 12.4277 10.8476 10.7288 11.0107 8.59082C11.1739 10.7288 12.8728 12.4277 15.0107 12.5908C12.8728 12.7539 11.1739 14.4529 11.0107 16.5908V16.5908Z" stroke="black" stroke-width="1.5" stroke-linecap="round" stroke-linejoin="round"/>
<path fill-rule="evenodd" clip-rule="evenodd" d="M16.0107 19.5908C15.929 18.5219 15.0796 17.6726 14.0107 17.5908C15.0796 17.5091 15.929 16.6597 16.0107 15.5908C16.0925 16.6597 16.9419 17.5091 18.0107 17.5908C16.9419 17.6726 16.0925 18.5219 16.0107 19.5908Z" stroke="black" stroke-width="1.5"/>
<path d="M16.0107 19.5908C15.9236 18.9554 15.5347 17.7443 14.0107 17.5908C15.5347 17.4373 15.9236 16.2262 16.0107 15.5908C16.1642 17.1148 17.3753 17.5036 18.0107 17.5908C17.3753 17.678 16.1642 18.0669 16.0107 19.5908Z" fill="black" stroke="black" stroke-width="1.5"/>
<path fill-rule="evenodd" clip-rule="evenodd" d="M16.0107 19.5908C15.929 18.5219 15.0796 17.6726 14.0107 17.5908C15.0796 17.5091 15.929 16.6597 16.0107 15.5908C16.0925 16.6597 16.9419 17.5091 18.0107 17.5908C16.9419 17.6726 16.0925 18.5219 16.0107 19.5908Z" stroke="black" stroke-width="1.5" stroke-linecap="round" stroke-linejoin="round"/>
<path fill-rule="evenodd" clip-rule="evenodd" d="M16.0107 5.59082C15.929 6.65969 15.0796 7.50905 14.0107 7.59082C15.0796 7.67259 15.929 8.52195 16.0107 9.59082C16.0925 8.52195 16.9419 7.67259 18.0107 7.59082C16.9419 7.50905 16.0925 6.65969 16.0107 5.59082Z" stroke="black" stroke-width="1.5"/>
<path d="M16.0107 5.59082C16.1642 7.11476 17.3753 7.50364 18.0107 7.59082C17.3753 7.67801 16.1642 8.06688 16.0107 9.59082C15.9236 8.95542 15.5347 7.7443 14.0107 7.59082C15.5347 7.43734 15.9236 6.22622 16.0107 5.59082Z" fill="black" stroke="black" stroke-width="1.5"/>
<path fill-rule="evenodd" clip-rule="evenodd" d="M16.0107 5.59082C15.929 6.65969 15.0796 7.50905 14.0107 7.59082C15.0796 7.67259 15.929 8.52195 16.0107 9.59082C16.0925 8.52195 16.9419 7.67259 18.0107 7.59082C16.9419 7.50905 16.0925 6.65969 16.0107 5.59082Z" stroke="black" stroke-width="1.5" stroke-linecap="round" stroke-linejoin="round"/>
</svg>
